<?xml version="1.0" encoding="UTF-8"?>
<svg version="1.1" xmlns="http://www.w3.org/2000/svg" width="1485" height="1059">
<path d="M0 0 C490.05 0 980.1 0 1485 0 C1485 349.47 1485 698.94 1485 1059 C994.95 1059 504.9 1059 0 1059 C0 709.53 0 360.06 0 0 Z " fill="#FAFBFC" transform="translate(0,0)"/>
<path d="M0 0 C1.40981172 -0.14294196 1.40981172 -0.14294196 2.84810448 -0.28877163 C90.66049555 -8.75504479 90.66049555 -8.75504479 120.94702148 16.17727661 C140.93471734 33.50715747 158.01897582 54.68222181 160.19439697 81.75904846 C160.63307285 94.15222449 161.21081951 112.92039391 153.19995117 123.29272461 C150.43652256 125.1519639 148.06671591 125.63287192 144.76245117 125.73022461 C144.02124023 125.77018555 143.2800293 125.81014648 142.51635742 125.85131836 C138.82543077 124.96126354 137.50508765 123.28525033 135.19995117 120.29272461 C134.51273066 116.91414388 134.61700969 113.61512032 134.71166992 110.17944336 C134.72228203 108.7251165 134.72228203 108.7251165 134.73310852 107.2414093 C134.76103244 104.15355324 134.82376814 101.06752986 134.88745117 97.98022461 C134.91253659 95.88324564 134.93534933 93.78623817 134.95581055 91.68920898 C135.01085279 86.55634452 135.09711258 81.42484497 135.19995117 76.29272461 C133.93924805 76.32938232 132.67854492 76.36604004 131.37963867 76.40380859 C126.67605751 76.53106962 121.97262656 76.61107178 117.26782227 76.67724609 C115.23663698 76.71232227 113.20562684 76.75999816 111.17504883 76.82080078 C108.24540922 76.90629051 105.31811592 76.94554025 102.38745117 76.97631836 C101.48816895 77.01244736 100.58888672 77.04857635 99.66235352 77.08580017 C93.46556039 77.0896086 90.30403319 75.50376989 85.78710938 71.28822327 C81.70034468 66.15002504 81.93019528 61.11722656 82.00463867 54.83569336 C82.00746857 53.93273026 82.01029846 53.02976715 82.01321411 52.09944153 C82.0243751 49.22623227 82.0494722 46.35333906 82.07495117 43.48022461 C82.08498625 41.52775517 82.09411118 39.57528082 82.10229492 37.62280273 C82.12430109 32.84598895 82.15880286 28.0694103 82.19995117 23.29272461 C70.69922257 23.33078247 59.19881949 23.39014588 47.69834709 23.47662735 C42.35804906 23.51611771 37.01791631 23.54829864 31.67749023 23.5637207 C26.52257903 23.57887687 21.36812216 23.6133043 16.21341324 23.66103363 C14.24790524 23.67585809 12.28233237 23.68376623 10.31676865 23.68460846 C7.56102954 23.68697664 4.80654754 23.7140442 2.05102539 23.74682617 C1.24038132 23.74179581 0.42973724 23.73676544 -0.4054718 23.73158264 C-5.65641019 23.82807527 -8.61284332 24.85737479 -12.80004883 28.29272461 C-17.26979664 33.2456884 -17.92494324 36.59484582 -17.95394897 43.17172241 C-17.95833123 43.87565144 -17.96271348 44.57958047 -17.96722853 45.30484068 C-17.98061044 47.66978256 -17.98679417 50.03468718 -17.99291992 52.3996582 C-18.00082177 54.0932736 -18.00909078 55.78688732 -18.0177002 57.48049927 C-18.04392474 63.05070386 -18.05923466 68.62091595 -18.07348633 74.19116211 C-18.07884704 76.1110497 -18.08422455 78.03093724 -18.08961868 79.95082474 C-18.11125374 87.94251288 -18.12998671 95.93419901 -18.14124107 103.92590904 C-18.15745338 115.36210824 -18.19055779 126.79796622 -18.24764192 138.2340368 C-18.28643922 146.28264148 -18.3058857 154.3311553 -18.31116164 162.37985098 C-18.31480353 167.18200221 -18.32669948 171.98378954 -18.35926437 176.78583908 C-18.3895153 181.31184431 -18.3955967 185.83726875 -18.38388062 190.36335373 C-18.38366125 192.01562677 -18.39185129 193.66792808 -18.40953445 195.32010651 C-18.53581161 207.80865146 -16.77140277 219.14736505 -8.80004883 229.29272461 C-8.1909668 230.1319043 -8.1909668 230.1319043 -7.56958008 230.98803711 C-3.52601118 236.22089097 1.42980757 239.17958389 7.19995117 242.29272461 C5.56365005 238.76708611 3.46535795 235.6566043 1.32495117 232.41772461 C-8.83951489 216.45678432 -9.84025988 195.84245651 -6.80004883 177.54272461 C-2.14602127 157.67692181 10.49404458 142.42999567 27.19995117 131.29272461 C44.52823315 120.96191333 65.46240564 118.10110885 85.07495117 122.98022461 C92.07311157 124.98579497 97.06398502 127.08877538 101.19995117 133.29272461 C101.72401946 137.22323675 101.34785204 139.01805157 99.44995117 142.54272461 C96.2587747 146.44305141 96.2587747 146.44305141 93.19995117 147.29272461 C88.49281874 147.68498565 85.94441675 147.59623139 81.53979492 145.80053711 C76.84072731 143.96985187 72.51560887 143.79398114 67.51245117 143.85522461 C66.63468018 143.86352295 65.75690918 143.87182129 64.85253906 143.88037109 C50.71496429 144.24493552 39.19369469 149.44312131 28.88745117 159.10522461 C24.84475829 163.40420272 21.8649338 168.041605 19.19995117 173.29272461 C18.78487305 174.08936523 18.36979492 174.88600586 17.94213867 175.70678711 C12.4824076 188.03890694 14.614587 203.43515457 17.19995117 216.29272461 C17.85995117 216.29272461 18.51995117 216.29272461 19.19995117 216.29272461 C19.52866211 216.98237305 19.85737305 217.67202148 20.19604492 218.38256836 C26.85135851 231.53087081 36.92160809 240.0459367 50.76245117 245.23022461 C65.68537288 249.11163074 82.50302739 246.66678338 95.66870117 238.94897461 C108.0569679 230.84307169 115.86384745 218.65959959 119.19995117 204.29272461 C119.53501021 201.41712214 119.64109429 198.56079277 119.69995117 195.66772461 C119.96651693 187.44457499 119.96651693 187.44457499 122.63745117 184.29272461 C126.07029506 181.73052953 129.67461569 181.51435451 133.85620117 181.75366211 C137.39757417 182.5681779 139.05678729 184.45821755 141.19995117 187.29272461 C141.52995117 187.62272461 141.85995117 187.95272461 142.19995117 188.29272461 C143.26484097 201.85697663 141.28314298 215.0443839 135.12963867 227.30053711 C133.91913547 229.89447255 133.07182561 232.56908146 132.19995117 235.29272461 C140.49133992 243.82770546 140.49133992 243.82770546 149.26245117 251.85522461 C152.83562576 254.90810825 156.21925643 258.12969102 159.57495117 261.41772461 C160.09968018 261.92118408 160.62440918 262.42464355 161.16503906 262.94335938 C165.06599505 266.80866112 166.89684445 269.86787084 167.57495117 275.29272461 C167.10251395 279.0722224 165.82741755 280.59018776 163.19995117 283.29272461 C160.07029324 285.37916323 158.10415958 285.89480047 154.36206055 285.80175781 C151.65848486 285.16524524 150.44665479 284.09443111 148.41870117 282.21069336 C147.37806519 281.25634399 147.37806519 281.25634399 146.31640625 280.28271484 C145.61797607 279.62601807 144.9195459 278.96932129 144.19995117 278.29272461 C143.22674927 277.39952515 143.22674927 277.39952515 142.23388672 276.48828125 C140.27342853 274.68517595 138.32834234 272.86686504 136.38745117 271.04272461 C135.70038086 270.39811279 135.01331055 269.75350098 134.30541992 269.08935547 C128.48454611 263.60581542 122.80092363 258.00049527 117.19995117 252.29272461 C115.4486546 253.39483366 113.69896654 254.49949893 111.94995117 255.60522461 C110.97541992 256.22010742 110.00088867 256.83499023 108.99682617 257.46850586 C106.27327416 259.19430785 106.27327416 259.19430785 104.10620117 260.89819336 C90.42706232 270.9052683 70.15419914 269.74886191 54.13720703 269.62890625 C50.77180952 269.60529028 47.40720779 269.60837062 44.04174805 269.61499023 C17.14137106 269.5830588 -2.6578513 266.6792256 -23.10083008 248.21459961 C-27.3401449 243.90119968 -30.26953507 239.05334721 -33.05004883 233.73022461 C-33.52631714 232.83956299 -33.52631714 232.83956299 -34.01220703 231.9309082 C-40.28395881 219.14992574 -41.39459536 205.76881294 -41.31762695 191.81762695 C-41.32306407 190.13356425 -41.33019554 188.44950631 -41.33886719 186.76545715 C-41.35691205 182.24276011 -41.35011277 177.72043303 -41.33735085 173.19773054 C-41.32712773 168.43573578 -41.33664178 163.67376986 -41.34289551 158.91177368 C-41.35014366 150.92151275 -41.34065755 142.93140041 -41.3215332 134.94116211 C-41.29975501 125.73651055 -41.30683418 116.53221336 -41.32883883 107.32757032 C-41.34705614 99.38566275 -41.34952079 91.44386115 -41.33908415 83.50193942 C-41.33288579 78.77549923 -41.3319121 74.04922503 -41.3452301 69.32279587 C-41.35688131 64.87869302 -41.34859586 60.43504236 -41.32565308 55.99098778 C-41.32041568 54.37140461 -41.3217932 52.75178262 -41.33070374 51.1322155 C-41.39734138 37.77754632 -40.42461317 24.51309531 -30.80004883 14.29272461 C-30.21739258 13.65592773 -29.63473633 13.01913086 -29.03442383 12.36303711 C-20.86699209 3.80498907 -11.54549787 1.11236002 0 0 Z " fill="#0F182F" transform="translate(268.800048828125,355.707275390625)"/>
<path d="M0 0 C10.412999 7.21810158 16.94793166 17.48913897 19.375 29.8671875 C20.8489206 44.85204689 18.7819175 57.78676984 10.75 70.6796875 C9.1372447 72.39857548 7.4838921 74.08307429 5.75 75.6796875 C7.4391463 80.70072128 10.39814203 84.35973115 13.6484375 88.48242188 C16.75 92.4852501 16.75 92.4852501 16.75 94.6796875 C0.64686099 96.21331979 0.64686099 96.21331979 -4.00390625 92.453125 C-5.71321564 89.91949313 -7.08998405 87.50407415 -8.25 84.6796875 C-8.82105469 84.751875 -9.39210938 84.8240625 -9.98046875 84.8984375 C-23.95133237 86.49764605 -38.28113683 87.16303933 -50.15234375 78.48046875 C-60.2621892 69.80143942 -66.15192257 60.09458547 -67.43896484 46.71533203 C-68.22708911 34.69430313 -67.40339942 21.63422006 -59.9375 11.6796875 C-58.733971 10.32316753 -57.5054341 8.98831796 -56.25 7.6796875 C-55.7034375 7.04546875 -55.156875 6.41125 -54.59375 5.7578125 C-41.49144531 -8.70416532 -16.2092937 -9.5117036 0 0 Z " fill="#0F1930" transform="translate(583.25,464.3203125)"/>
<path d="M0 0 C0.82886719 0.60328125 1.65773438 1.2065625 2.51171875 1.828125 C3.35089844 2.43140625 4.19007813 3.0346875 5.0546875 3.65625 C10.54441388 8.06235992 14.32348646 13.08748985 16.51171875 19.828125 C16.51171875 21.478125 16.51171875 23.128125 16.51171875 24.828125 C10.57171875 24.828125 4.63171875 24.828125 -1.48828125 24.828125 C-2.80828125 22.518125 -4.12828125 20.208125 -5.48828125 17.828125 C-9.02215413 13.55802861 -13.09231989 12.43898855 -18.48828125 11.828125 C-26.14700411 11.24114259 -31.22259195 12.58696568 -37.67578125 17.015625 C-45.05613838 24.39598213 -45.78026345 32.81955525 -45.80737305 42.82299805 C-45.68596051 50.60984989 -44.48370364 58.08674668 -38.86328125 63.890625 C-38.07953125 64.53 -37.29578125 65.169375 -36.48828125 65.828125 C-35.82828125 66.488125 -35.16828125 67.148125 -34.48828125 67.828125 C-27.65903372 71.27340068 -18.67814821 71.02522984 -11.42578125 68.953125 C-5.66298524 66.34614585 -2.8513318 63.68438072 -0.48828125 57.828125 C-0.15828125 55.848125 0.17171875 53.868125 0.51171875 51.828125 C-6.41828125 51.828125 -13.34828125 51.828125 -20.48828125 51.828125 C-20.48828125 47.208125 -20.48828125 42.588125 -20.48828125 37.828125 C-7.61828125 37.828125 5.25171875 37.828125 18.51171875 37.828125 C18.51171875 53.3838779 18.23629118 64.88467848 7.91796875 76.64453125 C2.60567544 81.64359972 -4.18102594 84.828125 -11.48828125 84.828125 C-11.48828125 85.488125 -11.48828125 86.148125 -11.48828125 86.828125 C-18.08828125 86.828125 -24.68828125 86.828125 -31.48828125 86.828125 C-31.48828125 86.168125 -31.48828125 85.508125 -31.48828125 84.828125 C-32.49890625 84.725 -33.50953125 84.621875 -34.55078125 84.515625 C-43.55317365 82.94377871 -49.49805519 78.70152541 -55.48828125 71.828125 C-64.36419141 58.41949915 -66.81100342 42.94323266 -63.80078125 27.2421875 C-59.99715046 14.91208437 -52.24215024 5.12581687 -40.9921875 -1.12890625 C-28.7111968 -6.24438912 -11.52790913 -7.0384381 0 0 Z " fill="#584DE2" transform="translate(848.48828125,463.171875)"/>
<path d="M0 0 C6.94773155 5.46949079 12.05031908 11.59744575 13.23657227 20.57617188 C13.37440598 22.9556171 13.4052547 25.30434219 13.375 27.6875 C13.36742676 28.52385986 13.35985352 29.36021973 13.35205078 30.22192383 C13.18235789 36.58540708 12.28788111 41.79789755 8.9375 47.3125 C8.50179688 48.03695312 8.06609375 48.76140625 7.6171875 49.5078125 C3.19876846 56.05093578 -2.82475146 60.46394588 -10.6796875 62.01953125 C-21.58272658 63.36006884 -29.83210335 62.63990167 -39.0625 56.3125 C-45.31889823 51.26370225 -49.37154488 43.07741235 -50.32128906 35.15332031 C-51.11484439 23.38973597 -50.58277786 14.07323839 -42.625 4.9375 C-31.26416215 -7.17303781 -14.30861908 -7.88434113 0 0 Z " fill="#6656EA" transform="translate(1278.0625,487.6875)"/>
<path d="M0 0 C9.63904471 8.77991247 9.63904471 8.77991247 9.91712952 13.81338501 C9.91490891 14.71495331 9.91268829 15.61652161 9.91040039 16.54541016 C9.91032486 17.56631744 9.91024933 18.58722473 9.91017151 19.6390686 C9.90501022 20.74430878 9.89984894 21.84954895 9.89453125 22.98828125 C9.8931163 24.11744965 9.89170135 25.24661804 9.89024353 26.41000366 C9.88463244 30.02726863 9.87207803 33.64447239 9.859375 37.26171875 C9.85436143 39.70963452 9.84979828 42.15755127 9.84570312 44.60546875 C9.83465939 50.61590911 9.81738729 56.62630354 9.796875 62.63671875 C4.516875 62.63671875 -0.763125 62.63671875 -6.203125 62.63671875 C-6.698125 59.17171875 -6.698125 59.17171875 -7.203125 55.63671875 C-8.09 56.42046875 -8.976875 57.20421875 -9.890625 58.01171875 C-15.91224062 63.33314651 -22.68574377 63.14165454 -30.3046875 62.9453125 C-35.16545584 62.56054226 -38.45750542 61.76907568 -42.203125 58.63671875 C-42.72519531 58.20875 -43.24726562 57.78078125 -43.78515625 57.33984375 C-47.44427516 53.42871941 -47.63216899 49.36049353 -47.828125 44.13671875 C-47.63524576 38.85599797 -47.37981349 34.9091723 -43.75390625 30.92578125 C-35.90882628 24.40468203 -27.07789026 23.32996643 -17.265625 22.51171875 C-16.29560547 22.42535156 -15.32558594 22.33898437 -14.32617188 22.25 C-11.95228489 22.03950756 -9.57803794 21.8352399 -7.203125 21.63671875 C-7.3729785 16.20621692 -7.3729785 16.20621692 -9.85546875 11.65234375 C-12.95253344 10.31251543 -15.3993862 10.31012629 -18.765625 10.38671875 C-20.46912109 10.40992188 -20.46912109 10.40992188 -22.20703125 10.43359375 C-25.25415271 10.51409837 -25.25415271 10.51409837 -28.203125 11.63671875 C-29.42182429 14.14119391 -29.42182429 14.14119391 -30.203125 16.63671875 C-32.14054841 16.66375256 -34.07807979 16.68313 -36.015625 16.69921875 C-37.09457031 16.71082031 -38.17351562 16.72242188 -39.28515625 16.734375 C-42.203125 16.63671875 -42.203125 16.63671875 -45.203125 15.63671875 C-44.90396718 9.65356243 -42.22213928 5.85353686 -38.203125 1.63671875 C-29.0013955 -5.42131113 -9.66825741 -6.74844367 0 0 Z " fill="#6455E8" transform="translate(1169.203125,486.36328125)"/>
<path d="M0 0 C0.78632812 -0.020625 1.57265625 -0.04125 2.3828125 -0.0625 C10.84527931 -0.11872902 17.59169989 2.898466 23.8515625 8.74609375 C27.95735252 13.12492892 29.77772199 17.48174659 31.25 23.25 C31.5903125 24.4565625 31.5903125 24.4565625 31.9375 25.6875 C32.44457201 29.84549049 32.25 34.0612046 32.25 38.25 C17.07 38.25 1.89 38.25 -13.75 38.25 C-10.88468479 48.41977718 -10.88468479 48.41977718 -7.1875 51.9375 C-2.29628831 53.80505356 2.08086219 54.02575471 7.25 53.25 C11.16075925 51.26031547 12.82689098 49.88466354 15.25 46.25 C20.61959974 45.71304003 25.13113844 46.81312658 30.25 48.25 C29.7957866 53.24634745 27.48599893 56.57670392 24.25 60.25 C15.23368169 67.66341727 2.78515935 67.30202341 -8.32763672 66.56982422 C-16.22358508 65.52732348 -21.1568162 60.41888972 -25.8125 54.375 C-31.98045784 44.57709569 -31.97994322 33.18509488 -29.6875 22.0625 C-27.11581838 12.91209796 -21.67266724 7.32021015 -13.765625 2.34375 C-9.28428174 -0.08798665 -4.96482344 0.03192813 0 0 Z " fill="#5B4FE3" transform="translate(905.75,482.75)"/>
<path d="M0 0 C0.93972656 0.00169189 1.87945313 0.00338379 2.84765625 0.00512695 C9.93808882 0.19018625 14.63559578 1.33552979 19.6875 6.5625 C20.595 7.325625 21.5025 8.08875 22.4375 8.875 C30.52789673 18.53852942 30.6875 25.48289883 30.6875 38.5625 C15.8375 38.5625 0.9875 38.5625 -14.3125 38.5625 C-12.32306308 46.9120355 -12.32306308 46.9120355 -7.3125 52.5625 C-2.38564823 54.20478392 2.56803146 54.45134447 7.6875 53.5625 C9.32064827 52.0087982 9.32064827 52.0087982 10.4375 50 C11.7109375 48.0546875 11.7109375 48.0546875 13.6875 46.5625 C19.1271962 46.22591201 24.30296383 46.80150261 29.6875 47.5625 C28.81106285 53.56028679 26.07436265 57.45121276 21.6875 61.5625 C11.62105041 67.20077559 1.35163428 69.08455663 -9.875 66.4375 C-18.07142989 63.9843028 -24.21989161 59.09661999 -28.3125 51.5625 C-33.18364932 41.38808328 -32.201022 29.22432205 -29.3125 18.5625 C-26.20878332 11.21159208 -20.31580755 6.11550751 -13.703125 1.8984375 C-9.08498178 0.07884651 -4.92577847 -0.01257461 0 0 Z " fill="#5F51E6" transform="translate(1044.3125,482.4375)"/>
<path d="M0 0 C7.57420639 4.57608303 10.53506891 8.27496863 13 16.8125 C13.48503919 20.65531223 13.47062006 24.42077466 13.390625 28.2890625 C13.38496521 29.34032318 13.37930542 30.39158386 13.37347412 31.47470093 C13.35128043 34.796119 13.30111589 38.11641409 13.25 41.4375 C13.22991303 43.70441138 13.21166614 45.97133986 13.1953125 48.23828125 C13.1514714 53.76344625 13.08256273 59.28778347 13 64.8125 C7.39 64.8125 1.78 64.8125 -4 64.8125 C-4.0093457 63.51103027 -4.01869141 62.20956055 -4.02832031 60.86865234 C-4.06828047 56.02651105 -4.13405657 51.18500107 -4.20751953 46.34326172 C-4.23569413 44.25024544 -4.25692609 42.15712346 -4.27099609 40.06396484 C-4.29247394 37.04990663 -4.33914988 34.03711463 -4.390625 31.0234375 C-4.39185364 30.09195892 -4.39308228 29.16048035 -4.39434814 28.20077515 C-4.52280362 22.46508725 -5.21941772 19.20430885 -9 14.8125 C-12.94510619 12.8399469 -17.69933007 13.37124629 -22 13.8125 C-25.43216368 15.63364808 -26.58175564 16.83299148 -28.09521484 20.37744141 C-29.23136961 24.69090539 -29.35326503 28.7063 -29.4140625 33.1484375 C-29.43342865 34.02778961 -29.4527948 34.90714172 -29.4727478 35.81314087 C-29.53222815 38.60449718 -29.5788021 41.39589543 -29.625 44.1875 C-29.66320885 46.08725694 -29.70226226 47.9869971 -29.7421875 49.88671875 C-29.83790357 54.5285085 -29.9220504 59.17037929 -30 63.8125 C-35.28 63.8125 -40.56 63.8125 -46 63.8125 C-46 42.6925 -46 21.5725 -46 -0.1875 C-41.05 -0.1875 -36.1 -0.1875 -31 -0.1875 C-31 3.1125 -31 6.4125 -31 9.8125 C-30.34 9.8125 -29.68 9.8125 -29 9.8125 C-28.90460937 9.21824219 -28.80921875 8.62398438 -28.7109375 8.01171875 C-27.84671083 5.33831428 -26.77999689 4.3935523 -24.625 2.625 C-24.01914062 2.11582031 -23.41328125 1.60664063 -22.7890625 1.08203125 C-17.10357567 -2.95242993 -6.3183982 -2.5188209 0 0 Z " fill="#5B4EE3" transform="translate(992,484.1875)"/>
<path d="M0 0 C5.28 0 10.56 0 16 0 C16.01458252 1.21059082 16.02916504 2.42118164 16.04418945 3.66845703 C16.10231685 8.17509981 16.1795489 12.68125049 16.26245117 17.1875 C16.29563265 19.13500968 16.32368557 21.08261397 16.34643555 23.03027344 C16.38010634 25.83569515 16.43242827 28.64025528 16.48828125 31.4453125 C16.49467117 32.31116974 16.5010611 33.17702698 16.50764465 34.06912231 C16.64965019 39.95474781 17.77857697 44.04018847 21.38671875 48.84765625 C24.76227969 51.2587712 29.06729781 50.54518769 33 50 C38.05839573 47.60875838 39.95300147 45.12569305 42 40 C42.44443891 36.88742045 42.48793861 33.80495296 42.51171875 30.6640625 C42.52966995 29.78471039 42.54762115 28.90535828 42.56611633 27.99935913 C42.62002812 25.20795395 42.65405329 22.41671789 42.6875 19.625 C42.72069 17.72523698 42.75518121 15.82549623 42.79101562 13.92578125 C42.87574349 9.28397656 42.94264561 4.64222035 43 0 C48.28 0 53.56 0 59 0 C59 21.12 59 42.24 59 64 C53.72 64 48.44 64 43 64 C42.505 60.04 42.505 60.04 42 56 C41.2265625 57.11375 41.2265625 57.11375 40.4375 58.25 C36.63417539 62.54093033 32.60112928 65.11012704 26.87890625 65.56640625 C25.44036616 65.59389323 24.00100133 65.59194583 22.5625 65.5625 C21.81258789 65.55226807 21.06267578 65.54203613 20.29003906 65.53149414 C14.45285123 65.30684005 10.18429477 64.31404035 6 60 C1.24574914 54.71616171 -0.13229203 50.13867786 -0.11352539 43.02612305 C-0.11344986 42.06550461 -0.11337433 41.10488617 -0.11329651 40.11515808 C-0.10813522 39.0910231 -0.10297394 38.06688812 -0.09765625 37.01171875 C-0.0962413 35.95338333 -0.09482635 34.89504791 -0.09336853 33.80464172 C-0.08778159 30.43223211 -0.07523144 27.05988946 -0.0625 23.6875 C-0.05748331 21.39778742 -0.0529207 19.10807379 -0.04882812 16.81835938 C-0.03781643 11.21221388 -0.02056072 5.60611828 0 0 Z " fill="#0E1830" transform="translate(616,484)"/>
<path d="M0 0 C7.25275069 6.41472277 11.02485103 13.75077873 11.640625 23.44921875 C11.76442666 32.66212549 11.40228792 40.86502449 5.4375 48.25 C1.68373848 46.99874616 1.19676711 45.6847596 -0.5625 42.25 C-0.5625 41.59 -0.5625 40.93 -0.5625 40.25 C-5.8425 40.25 -11.1225 40.25 -16.5625 40.25 C-13.93706986 44.39789413 -13.93706986 44.39789413 -11.296875 48.53637695 C-8.5625 52.91666667 -8.5625 52.91666667 -8.5625 56.25 C-24.32099303 57.1733492 -24.32099303 57.1733492 -29.98828125 52.796875 C-35.79898704 47.08709959 -39.54767556 40.08473875 -39.9609375 31.84765625 C-39.97359653 30.33597032 -39.96537404 28.82398194 -39.9375 27.3125 C-39.92807373 26.52125732 -39.91864746 25.73001465 -39.90893555 24.91479492 C-39.67993002 16.06569274 -37.64875711 8.88955321 -31.5625 2.25 C-23.09900614 -4.70887273 -9.2459177 -6.70545059 0 0 Z " fill="#F6F6F8" transform="translate(573.5625,477.75)"/>
<path d="M0 0 C17.49 0 34.98 0 53 0 C53 14 53 14 50.62109375 17.89453125 C49.59260218 18.90170863 48.52976536 19.87486597 47.4375 20.8125 C46.32053886 21.89077147 45.20594429 22.97149989 44.09375 24.0546875 C43.55492187 24.55967773 43.01609375 25.06466797 42.4609375 25.58496094 C40.58720616 27.39982505 39.00510903 29.35503898 37.4375 31.4375 C36.91671875 32.12585938 36.3959375 32.81421875 35.859375 33.5234375 C35.24578125 34.34070313 34.6321875 35.15796875 34 36 C32.07483906 38.53049505 30.13362756 41.04810948 28.1875 43.5625 C27.70659912 44.19534912 27.22569824 44.82819824 26.73022461 45.48022461 C25.53352669 47.02417956 24.2717954 48.51729326 23 50 C22.34 50 21.68 50 21 50 C21 50.66 21 51.32 21 52 C31.89 52 42.78 52 54 52 C54 56.29 54 60.58 54 65 C35.85 65 17.7 65 -1 65 C-1 53 -1 53 2.4375 48.4375 C3.95484797 46.95475821 5.47583747 45.47573596 7 44 C8.46156034 42.27004404 9.89837026 40.51893847 11.3125 38.75 C15.23547706 33.91279872 19.23727309 29.14999023 23.2824707 24.41503906 C25.17049807 22.19789334 27.0044457 19.99376168 28.6953125 17.62109375 C29.12585938 17.08613281 29.55640625 16.55117188 30 16 C30.66 16 31.32 16 32 16 C32 15.34 32 14.68 32 14 C21.44 14 10.88 14 0 14 C0 9.38 0 4.76 0 0 Z " fill="#101931" transform="translate(718,483)"/>
<path d="M0 0 C4.6 2.2 4.6 2.2 6 5 C6.90607735 11.56906077 6.90607735 11.56906077 4.71875 15.0234375 C2.89627916 17.11927896 0.99385611 19.06656377 -1 21 C-1.66 21.66 -2.32 22.32 -3 23 C-4.26045971 24.26045971 -5.5301243 25.51184415 -6.8125 26.75 C-8.70736524 28.69900425 -10.47702555 30.69158068 -12.25 32.75 C-16.59809173 37.75633163 -21.3080204 42.35959089 -26.0390625 47 C-30.03514379 50.94979463 -33.82438496 54.99312423 -37.45703125 59.28100586 C-39.75233094 61.83815857 -41.89996245 63.51456534 -45 65 C-50.5581185 64.77408964 -53.14514252 63.59807406 -56.98828125 59.6328125 C-57.85904297 58.74722656 -58.72980469 57.86164062 -59.62695312 56.94921875 C-60.51318359 56.01722656 -61.39941406 55.08523438 -62.3125 54.125 C-63.21806641 53.20074219 -64.12363281 52.27648437 -65.05664062 51.32421875 C-73.83129559 42.30745922 -73.83129559 42.30745922 -74.5 37.125 C-74.39828905 33.45662525 -73.98339649 32.98015677 -71.4375 29.9375 C-68 28 -68 28 -64.75 27.625 C-59.95207803 29.38423806 -57.0730231 32.15466618 -53.4296875 35.67578125 C-51.05683999 37.94562734 -48.59083354 39.98541947 -46 42 C-45.75467529 41.42797852 -45.50935059 40.85595703 -45.2565918 40.26660156 C-43.78524527 37.61263203 -42.06447599 35.85500817 -39.89453125 33.734375 C-38.66573242 32.52201172 -38.66573242 32.52201172 -37.41210938 31.28515625 C-36.55423828 30.44855469 -35.69636719 29.61195313 -34.8125 28.75 C-28.95782843 23.01683199 -23.33176425 17.22192398 -18 11 C-16.20136569 8.9600818 -14.36861169 6.97853003 -12.5 5 C-11.6234375 4.05125 -10.746875 3.1025 -9.84375 2.125 C-6.28286526 -0.5358809 -4.35113074 -0.51969009 0 0 Z " fill="#5B4EE5" transform="translate(381,509)"/>
<path d="M0 0 C5.61 0 11.22 0 17 0 C17 5.61 17 11.22 17 17 C21.29 17 25.58 17 30 17 C30 20.96 30 24.92 30 29 C25.71 29 21.42 29 17 29 C17.11824064 34.07218134 17.24248853 39.1441664 17.37231445 44.21606445 C17.41563562 45.94160965 17.45731273 47.66719693 17.49731445 49.39282227 C17.55508526 51.87268764 17.61876003 54.35234172 17.68359375 56.83203125 C17.70030624 57.60400345 17.71701874 58.37597565 17.73423767 59.17134094 C17.82227895 62.35182933 17.98745195 64.96235584 19 68 C22.96 68 26.92 68 31 68 C31 72.29 31 76.58 31 81 C27.36445419 82.2118486 23.97592248 82.2609802 20.1875 82.3125 C19.48818359 82.34150391 18.78886719 82.37050781 18.06835938 82.40039062 C11.81811082 82.47639926 8.51464002 80.09553335 3.75 76.125 C-0.41746674 71.06450467 -0.27559171 65.32504159 -0.1953125 59.1015625 C-0.1924826 58.26660248 -0.18965271 57.43164246 -0.18673706 56.57138062 C-0.17560301 53.92243709 -0.15051127 51.27384016 -0.125 48.625 C-0.11496143 46.82161949 -0.10583712 45.01823364 -0.09765625 43.21484375 C-0.0756859 38.80976367 -0.04120321 34.40494047 0 30 C-3.3 30 -6.6 30 -10 30 C-10 25.38 -10 20.76 -10 16 C-6.7 16 -3.4 16 0 16 C0 10.72 0 5.44 0 0 Z " fill="#6556E9" transform="translate(1193,467)"/>
<path d="M0 0 C0.91114059 -0.0071553 1.82228119 -0.01431061 2.7610321 -0.02168274 C5.76690095 -0.03856485 8.7712775 -0.01917135 11.77709961 0.00219727 C13.8678754 0.0013686 15.95865113 -0.00109071 18.04942322 -0.00511169 C22.4283309 -0.00796927 26.80672696 0.00672927 31.18554688 0.03417969 C36.80040262 0.06828315 42.41434478 0.0622367 48.02924442 0.04351711 C52.34524664 0.03295332 56.66103594 0.041879 60.97701836 0.05690193 C63.04748337 0.06208733 65.11797059 0.06159762 67.18843269 0.05535698 C70.08053616 0.04991154 72.97132729 0.0702578 75.86328125 0.09765625 C76.72001434 0.09113037 77.57674744 0.08460449 78.45944214 0.07788086 C84.25629537 0.17134449 84.25629537 0.17134449 87.39866638 2.5372467 C89.88254278 6.07941321 89.33919457 8.38084264 88.86694336 12.63110352 C87.58824825 14.35296726 87.58824825 14.35296726 85.86694336 15.63110352 C82.77083296 15.93280943 79.87519952 16.05099255 76.77734375 16.03515625 C75.38181023 16.04545113 75.38181023 16.04545113 73.95808411 16.05595398 C70.8767682 16.0742842 67.79595844 16.07037553 64.71459961 16.06469727 C62.5761244 16.06925616 60.43765067 16.07456085 58.29917908 16.08058167 C53.81430108 16.08952507 49.32960103 16.08707572 44.84472656 16.07714844 C39.09310934 16.06565883 33.34210604 16.08586421 27.5905695 16.11506557 C23.17337634 16.133399 18.75633106 16.13314078 14.33910942 16.12742805 C12.21838965 16.12727448 10.09766008 16.1333484 7.97697639 16.14571953 C5.01290344 16.16057311 2.0499743 16.1499936 -0.9140625 16.1328125 C-1.79263916 16.14248047 -2.67121582 16.15214844 -3.57641602 16.16210938 C-9.50188512 16.09007292 -9.50188512 16.09007292 -12.67408752 13.78334045 C-14.70351173 10.78958158 -14.78443916 9.17751943 -14.13305664 5.63110352 C-9.98712433 0.03387751 -6.47742226 -0.08860949 0 0 Z " fill="#6B6FAF" transform="translate(289.133056640625,448.368896484375)"/>
<path d="M0 0 C5.28 0 10.56 0 16 0 C16.33 2.97 16.66 5.94 17 9 C17.556875 8.071875 18.11375 7.14375 18.6875 6.1875 C21.062108 2.91439167 22.41052041 1.71316071 26 0 C30.04467926 -0.38061599 33.92552415 -0.13432338 38 0 C38 4.95 38 9.9 38 15 C35.793125 15.061875 33.58625 15.12375 31.3125 15.1875 C25.45658981 15.40974565 25.45658981 15.40974565 20.6875 18.375 C18.52655568 21.73646894 17.87695678 24.28191298 17.79467773 28.19604492 C17.77473251 29.03668991 17.75478729 29.8773349 17.73423767 30.74345398 C17.70916893 32.09827629 17.70916893 32.09827629 17.68359375 33.48046875 C17.66281265 34.40845779 17.64203156 35.33644684 17.62062073 36.29255676 C17.55522677 39.2574624 17.49628738 42.22245672 17.4375 45.1875 C17.39430513 47.1972748 17.35069053 49.20704063 17.30664062 51.21679688 C17.19955573 56.14444032 17.09825955 61.07217299 17 66 C11.39 66 5.78 66 0 66 C0 44.22 0 22.44 0 0 Z " fill="#6C5BEB" transform="translate(1299,483)"/>
<path d="M0 0 C0 4.95 0 9.9 0 15 C-1.69125 14.938125 -3.3825 14.87625 -5.125 14.8125 C-9.85724729 14.81858258 -13.02516777 15.21761744 -17 18 C-20.39384347 21.62790164 -21.09501931 25.18084948 -21.20532227 30.03417969 C-21.22526749 30.81468689 -21.24521271 31.59519409 -21.26576233 32.39935303 C-21.29083107 33.6480014 -21.29083107 33.6480014 -21.31640625 34.921875 C-21.33718735 35.78186096 -21.35796844 36.64184692 -21.37937927 37.52789307 C-21.44463739 40.26851598 -21.50364917 43.00923275 -21.5625 45.75 C-21.60570781 47.6106867 -21.64932282 49.47136398 -21.69335938 51.33203125 C-21.80029442 55.88792523 -21.90162851 60.4439134 -22 65 C-27.28 65 -32.56 65 -38 65 C-38 43.88 -38 22.76 -38 1 C-33.05 1 -28.1 1 -23 1 C-23 4.3 -23 7.6 -23 11 C-22.34 11 -21.68 11 -21 11 C-20.938125 10.278125 -20.87625 9.55625 -20.8125 8.8125 C-19.71670094 5.0193494 -18.06397411 3.45117929 -15 1 C-10.13397282 -0.43768985 -5.03847412 -0.07634052 0 0 Z " fill="#5E50E7" transform="translate(1121,483)"/>
<path d="M0 0 C5.61 0 11.22 0 17 0 C17 21.78 17 43.56 17 66 C11.39 66 5.78 66 0 66 C0 44.22 0 22.44 0 0 Z " fill="#141E35" transform="translate(689,483)"/>
<path d="M0 0 C4.77198649 2.19422182 7.78899644 5.2244894 10 10 C10.50382145 13.08993214 10.57101745 16.12318251 10.5625 19.25 C10.5615332 20.09812256 10.56056641 20.94624512 10.55957031 21.82006836 C10.39384578 27.71407276 9.45692584 31.7926966 5.703125 36.50390625 C2.74944121 39.09854132 0.620618 39.95316091 -3.3125 40.25 C-7.27460669 39.9813826 -10.32410901 39.52584154 -14 38 C-19.39277207 31.73272435 -20.44000388 24.73349065 -20.2421875 16.7109375 C-19.72251382 10.89394504 -18.07310013 6.684369 -13.9375 2.5 C-9.5866595 -0.85741392 -5.28319449 -1.13635323 0 0 Z " fill="#F6F7FC" transform="translate(1264,496)"/>
<path d="M0 0 C0.98790024 -0.00945648 1.97580048 -0.01891296 2.99363708 -0.02865601 C4.05929398 -0.02258331 5.12495087 -0.01651062 6.22290039 -0.01025391 C7.86700645 -0.01455917 7.86700645 -0.01455917 9.54432678 -0.01895142 C11.86354081 -0.02099393 14.182772 -0.01545105 16.50195312 -0.00292969 C20.05320796 0.01310526 23.60332194 -0.0027649 27.15454102 -0.02197266 C29.40649666 -0.01998996 31.65845159 -0.01614573 33.91040039 -0.01025391 C35.50584938 -0.01936295 35.50584938 -0.01936295 37.13352966 -0.02865601 C38.12458206 -0.01919952 39.11563446 -0.00974304 40.13671875 0 C41.00703232 0.00238678 41.87734589 0.00477356 42.77403259 0.00723267 C45.68807604 0.47781183 47.05374484 1.30542027 49.13305664 3.38818359 C49.97970987 10.05557779 49.97970987 10.05557779 47.80126953 13.484375 C43.50760309 16.54796828 39.05354276 15.93859868 33.91040039 15.88427734 C32.26485924 15.88646019 32.26485924 15.88646019 30.58607483 15.88868713 C28.2686192 15.88702805 25.95115257 15.87546581 23.63378906 15.85473633 C20.08033646 15.82576333 16.52837358 15.83413159 12.97485352 15.84716797 C10.7241952 15.84093124 8.47354161 15.83254082 6.22290039 15.82177734 C5.1572435 15.82471298 4.09158661 15.82764862 2.99363708 15.83067322 C1.51178673 15.81164696 1.51178673 15.81164696 0 15.79223633 C-0.86951797 15.78683334 -1.73903595 15.78143036 -2.63490295 15.77586365 C-5.3371504 15.30651397 -6.22723719 14.55012965 -7.86694336 12.38818359 C-8.26538086 10.23193359 -8.26538086 10.23193359 -8.24194336 7.88818359 C-8.24967773 7.11474609 -8.25741211 6.34130859 -8.26538086 5.54443359 C-7.38703043 0.79100777 -4.42812701 0.01215497 0 0 Z " fill="#6B6FAE" transform="translate(283.866943359375,416.61181640625)"/>
<path d="M0 0 C3.01286852 1.76997892 5.41228811 3.82457623 7 7 C7.3885634 11.11877201 7.45820463 13.28899282 5.1875 16.8125 C2.09743641 19.90256359 0.53210502 20.93992363 -3.875 21.4375 C-7.47514001 21.37119908 -7.95761409 21.03517128 -10.9375 18.5625 C-11.618125 17.716875 -12.29875 16.87125 -13 16 C-13.33 15.67 -13.66 15.34 -14 15 C-14.58447461 11.00485712 -15.07311191 6.79775944 -12.94140625 3.2265625 C-9.13333101 -0.34415304 -4.93089166 -1.25477959 0 0 Z " fill="#665BE8" transform="translate(418,495)"/>
<path d="M0 0 C0.62362205 9.89133858 0.62362205 9.89133858 -1.6875 14 C-6.43114389 18.10261093 -9.57324708 19.50589176 -15.84375 19.296875 C-18.79034838 18.89118392 -20.70521706 17.86451114 -23 16 C-24.58939347 12.82121306 -24.41576711 10.5043228 -24 7 C-19.42929193 2.11208191 -15.72443307 1.15004514 -9.1875 0.6875 C-8.41212891 0.61466797 -7.63675781 0.54183594 -6.83789062 0.46679688 C-1.75647321 0 -1.75647321 0 0 0 Z " fill="#F2F2FB" transform="translate(1162,519)"/>
<path d="M0 0 C3.41358465 1.57163198 5.25249498 3.91271998 7.375 7 C8 9 8 9 8 14 C-1.57 14 -11.14 14 -21 14 C-19.937638 6.56346602 -19.71863669 5.83372539 -15 1 C-10.56242018 -1.21878991 -4.81680028 -0.52674608 0 0 Z " fill="#EFEFFB" transform="translate(913,496)"/>
<path d="M0 0 C1.13050781 -0.03738281 2.26101563 -0.07476562 3.42578125 -0.11328125 C7.34445861 0.39825867 8.88529931 1.59007726 11.6875 4.3125 C14.54956781 8.16148774 14.6875 9.24888209 14.6875 14.3125 C5.1175 14.3125 -4.4525 14.3125 -14.3125 14.3125 C-13.250138 6.87596602 -13.03113669 6.14622539 -8.3125 1.3125 C-5.51518195 -0.08615903 -3.11965441 0.06712733 0 0 Z " fill="#EEEEFB" transform="translate(1044.3125,495.6875)"/>
<path d="M0 0 C3.125 2.0625 3.125 2.0625 5 5 C5.69151325 9.30274909 5.51557405 11.20945312 3.125 14.875 C0.21289342 17.78710658 -0.6002777 17.96068305 -4.8125 18.375 C-8.16084564 18.30791111 -9.03191618 17.97938747 -12 16.0625 C-14.68675061 11.94841313 -14.91913231 8.78305745 -14 4 C-11.11903559 -1.36907004 -5.4222566 -0.99860622 0 0 Z " fill="#131C32" transform="translate(702,456)"/>
<path d="M0 0 C0.91756577 -0.00073013 1.83513153 -0.00146027 2.78050232 -0.00221252 C5.80569089 0.00126387 8.82932931 0.0401279 11.85424805 0.0793457 C13.95459655 0.08867363 16.05495594 0.09578984 18.15531921 0.1007843 C23.67772571 0.11985553 29.19947245 0.16895808 34.72161865 0.2243042 C40.35883662 0.27549358 45.99616142 0.29829772 51.63354492 0.32348633 C62.69047508 0.37707615 73.74691603 0.46239101 84.8034668 0.56762695 C84.8034668 0.89762695 84.8034668 1.22762695 84.8034668 1.56762695 C83.64723816 1.56905197 82.49100952 1.57047699 81.29974365 1.57194519 C70.41084916 1.58860448 59.52232889 1.63134543 48.63363266 1.69971752 C43.03540423 1.73402898 37.4374499 1.75910399 31.83911133 1.76318359 C26.43777112 1.76745758 21.03704968 1.79584587 15.6359024 1.84105873 C13.57384086 1.85406249 11.51170537 1.85833128 9.44960785 1.85378075 C6.56394892 1.84889525 3.6801128 1.87487584 0.79467773 1.90820312 C-0.48817863 1.89526466 -0.48817863 1.89526466 -1.79695129 1.88206482 C-6.77419835 1.96398954 -6.77419835 1.96398954 -10.68035889 4.96430969 C-11.94591776 7.13731264 -13.17521523 9.26966151 -14.1965332 11.56762695 C-14.64248635 7.73242987 -14.55919225 6.06582182 -12.25178528 2.89607239 C-8.07968754 -0.28353496 -5.10702179 -0.10662776 0 0 Z " fill="#9FA1CB" transform="translate(289.196533203125,448.432373046875)"/>
<path d="M0 0 C0.95648438 0.00902344 1.91296875 0.01804687 2.8984375 0.02734375 C5.22423525 0.05060173 7.54947294 0.08327787 9.875 0.125 C9.875 0.455 9.875 0.785 9.875 1.125 C8.74320312 1.17398437 7.61140625 1.22296875 6.4453125 1.2734375 C4.96351661 1.34846514 3.481747 1.42401297 2 1.5 C1.25363281 1.5309375 0.50726563 1.561875 -0.26171875 1.59375 C-4.65973188 1.68143831 -4.65973188 1.68143831 -8.125 4.125 C-10.60311674 4.3206408 -12.61297128 4.27860862 -15 3.5625 C-18.1540197 2.913143 -20.98285502 3.58116721 -24.125 4.125 C-17.09554941 -0.56130039 -8.17697344 -0.14929867 0 0 Z " fill="#3B4155" transform="translate(335.125,476.875)"/>
<path d="M0 0 C3.41659491 -0.05816623 6.83306205 -0.09365195 10.25 -0.125 C11.21808594 -0.14175781 12.18617188 -0.15851563 13.18359375 -0.17578125 C14.11816406 -0.18222656 15.05273438 -0.18867188 16.015625 -0.1953125 C16.87446289 -0.20578613 17.73330078 -0.21625977 18.61816406 -0.22705078 C21.17903596 0.01706677 22.79511029 0.71009488 25 2 C20.70893393 3.10577472 16.90374979 2.95087748 12.5 2.625 C11.2109375 2.53476562 9.921875 2.44453125 8.59375 2.3515625 C5.65562295 2.06413703 2.87441889 1.65227198 0 1 C0 0.67 0 0.34 0 0 Z " fill="#191F36" transform="translate(548,459)"/>
<path d="M0 0 C3.82874101 3.99520801 3.20685937 5.65487497 4 12 C-1.94 12 -7.88 12 -14 12 C-14 11.67 -14 11.34 -14 11 C-8.39 11 -2.78 11 3 11 C2.67 9.02 2.34 7.04 2 5 C1.01 4.67 0.02 4.34 -1 4 C-0.67 2.68 -0.34 1.36 0 0 Z " fill="#7B72E6" transform="translate(861,476)"/>
<path d="M0 0 C0.66 0.99 1.32 1.98 2 3 C0.625 4.5 0.625 4.5 -1 6 C-1.66 6 -2.32 6 -3 6 C-3.2475 6.804375 -3.495 7.60875 -3.75 8.4375 C-5 11 -5 11 -7.125 11.8125 C-7.74375 11.874375 -8.3625 11.93625 -9 12 C-6.2520787 7.72545575 -3.30749011 3.85873847 0 0 Z " fill="#242C42" transform="translate(748,499)"/>
<path d="M0 0 C-0.99 0 -1.98 0 -3 0 C-3 0.66 -3 1.32 -3 2 C-3.83144531 2.38091797 -3.83144531 2.38091797 -4.6796875 2.76953125 C-5.76636719 3.28580078 -5.76636719 3.28580078 -6.875 3.8125 C-7.59429688 4.14894531 -8.31359375 4.48539062 -9.0546875 4.83203125 C-11.30542806 5.99467097 -11.30542806 5.99467097 -13 9 C-13.66 9 -14.32 9 -15 9 C-13.43989422 4.78771439 -10.5154607 2.65453155 -7 0 C-3.86650268 -1.04449911 -3.01031744 -0.93423645 0 0 Z " fill="#675DE1" transform="translate(978,484)"/>
<path d="M0 0 C0.90105469 0.00902344 1.80210938 0.01804687 2.73046875 0.02734375 C3.41753906 0.03894531 4.10460938 0.05054688 4.8125 0.0625 C4.8125 1.0525 4.8125 2.0425 4.8125 3.0625 C0.1925 3.0625 -4.4275 3.0625 -9.1875 3.0625 C-7.31499103 -0.68251794 -3.72136574 -0.04832943 0 0 Z " fill="#6B61E7" transform="translate(1039.1875,482.9375)"/>
<path d="M0 0 C0.66 0.33 1.32 0.66 2 1 C-0.46074699 5.19774486 -3.4621436 6.4873812 -8 8 C-10.22265625 7.57421875 -10.22265625 7.57421875 -12 7 C-11.21753906 6.57847656 -10.43507813 6.15695312 -9.62890625 5.72265625 C-8.61699219 5.17480469 -7.60507812 4.62695312 -6.5625 4.0625 C-5.55316406 3.51722656 -4.54382813 2.97195313 -3.50390625 2.41015625 C-1.13329507 1.22300532 -1.13329507 1.22300532 0 0 Z " fill="#232A40" transform="translate(368,592)"/>
<path d="M0 0 C2.66735273 2.48952921 4.55746343 4.63408134 6 8 C2.22454612 6.90931332 -0.47043472 6.0916909 -3 3 C-2.01 3 -1.02 3 0 3 C0 2.01 0 1.02 0 0 Z " fill="#CFD0D7" transform="translate(272,591)"/>
<path d="M0 0 C1.12894876 0.93274109 2.25300876 1.87140122 3.375 2.8125 C4.00148438 3.33457031 4.62796875 3.85664062 5.2734375 4.39453125 C7 6 7 6 9 9 C4.74822077 8.52758009 2.70030797 6.15035929 0 3 C0 2.01 0 1.02 0 0 Z " fill="#32384C" transform="translate(415,605)"/>
<path d="M0 0 C1.65 0 3.3 0 5 0 C4.50168276 3.68754757 3.89932357 5.60490662 1 8 C1 7.01 1 6.02 1 5 C0.68911632 3.32900023 0.35919668 1.66128463 0 0 Z " fill="#8279EE" transform="translate(1069,530)"/>
<path d="M0 0 C0.66 0.99 1.32 1.98 2 3 C0.68 4.32 -0.64 5.64 -2 7 C-2.99 6.67 -3.98 6.34 -5 6 C-3.35 4.02 -1.7 2.04 0 0 Z " fill="#232D43" transform="translate(282,498)"/>
<path d="M0 0 C0.66 0.33 1.32 0.66 2 1 C0.71520959 2.50589388 -0.57804082 4.00457375 -1.875 5.5 C-2.95394531 6.75296875 -2.95394531 6.75296875 -4.0546875 8.03125 C-4.69664063 8.6809375 -5.33859375 9.330625 -6 10 C-6.66 10 -7.32 10 -8 10 C-6.34908222 5.70761377 -3.26245434 3.1206085 0 0 Z " fill="#7063E6" transform="translate(1241,487)"/>
<path d="M0 0 C0.99 0.33 1.98 0.66 3 1 C0.69 3.31 -1.62 5.62 -4 8 C-4.33 7.01 -4.66 6.02 -5 5 C-3.35 3.35 -1.7 1.7 0 0 Z " fill="#594BDF" transform="translate(1024,489)"/>
<path d="M0 0 C0 0.66 0 1.32 0 2 C-4.35294118 6 -4.35294118 6 -8 6 C-6.98565881 3.46414701 -6.34981128 2.21863205 -4 0.75 C-2 0 -2 0 0 0 Z " fill="#1F263C" transform="translate(540,463)"/>
<path d="M0 0 C0.66 0.33 1.32 0.66 2 1 C1.21654285 2.17219543 0.42297164 3.33763668 -0.375 4.5 C-0.81585937 5.1496875 -1.25671875 5.799375 -1.7109375 6.46875 C-2.13632812 6.9740625 -2.56171875 7.479375 -3 8 C-3.66 8 -4.32 8 -5 8 C-3.8141763 4.62496331 -2.72426311 2.35277269 0 0 Z " fill="#E9E8FA" transform="translate(968,498)"/>
<path d="M0 0 C0.66 0.33 1.32 0.66 2 1 C1.38125 1.7425 0.7625 2.485 0.125 3.25 C-1.60437281 5.48801188 -2.86106661 7.43739987 -4 10 C-4.25 7.25 -4.25 7.25 -4 4 C-2 1.625 -2 1.625 0 0 Z " fill="#8A8EC1" transform="translate(279,450)"/>
<path d="M0 0 C0.66 0.33 1.32 0.66 2 1 C-0.77280706 4.08089673 -3.06326356 5.68775452 -7 7 C-4.66666667 4.66666667 -2.33333333 2.33333333 0 0 Z " fill="#DBDDE3" transform="translate(306,507)"/>
<path d="M0 0 C3.76607955 1.25535985 4.26441793 2.52883585 6 6 C6 6.99 6 7.98 6 9 C2.91910327 6.22719294 1.31224548 3.93673644 0 0 Z " fill="#1E253B" transform="translate(617,535)"/>
<path d="M0 0 C0.33 0 0.66 0 1 0 C1.75 3.25 1.75 3.25 2 7 C0.0625 9.4375 0.0625 9.4375 -2 11 C-2.66 10.67 -3.32 10.34 -4 10 C-3.525625 9.46375 -3.05125 8.9275 -2.5625 8.375 C-0.71813924 5.57157164 -0.37543153 3.30379742 0 0 Z " fill="#C6C8CF" transform="translate(707,462)"/>
</svg>
